# xmcd
#
# Track frame offsets:
#	150
#	18900
#	46137
#	73352
#
# Disc length: 1224 seconds
#
# Revision: 1
# Processed by: cddbd v1.5PL3 Copyright (c) Steve Scherf et al.
# Submitted via: CDex 1.50Beta5
#
DISCID=2f04c604
DTITLE=move - ROCK IT DOWN
DYEAR=1900
DGENRE=JPop
TTITLE0=ROCK IT DOWN [Radio edit]
TTITLE1=ROCK IT DOWN [FAVORITE BLUE DIGI-ROCK mix]
TTITLE2=ROCK IT DOWN [English ver.]
TTITLE3=ROCK IT DOWN [tv mix]
EXTD=
EXTT0=
EXTT1=
EXTT2=
EXTT3=
PLAYORDER=
